<svg width="30" height="30" viewBox="0 0 30 30" fill="none" xmlns="http://www.w3.org/2000/svg">
<path d="M24.1008 17.5383L15.6633 25.9758C15.5762 26.0629 15.4729 26.1321 15.359 26.1793C15.2452 26.2265 15.1232 26.2507 15 26.2507C14.8768 26.2507 14.7548 26.2265 14.641 26.1793C14.5272 26.1321 14.4238 26.0629 14.3368 25.9758L5.89925 17.5383C5.72334 17.3624 5.62451 17.1238 5.62451 16.875C5.62451 16.6262 5.72334 16.3876 5.89925 16.2117C6.07516 16.0358 6.31375 15.937 6.56253 15.937C6.81131 15.937 7.0499 16.0358 7.22581 16.2117L14.0625 23.0496V4.6875C14.0625 4.43886 14.1613 4.2004 14.3371 4.02459C14.5129 3.84877 14.7514 3.75 15 3.75C15.2487 3.75 15.4871 3.84877 15.6629 4.02459C15.8388 4.2004 15.9375 4.43886 15.9375 4.6875V23.0496L22.7743 16.2117C22.9502 16.0358 23.1888 15.937 23.4375 15.937C23.6863 15.937 23.9249 16.0358 24.1008 16.2117C24.2767 16.3876 24.3756 16.6262 24.3756 16.875C24.3756 17.1238 24.2767 17.3624 24.1008 17.5383Z" fill="white"/>
</svg>
