<svg width="50" height="50" viewBox="0 0 50 50" fill="none" xmlns="http://www.w3.org/2000/svg">
<path d="M41.6668 41.6666V42.7083H42.7084V41.6666H41.6668ZM31.9876 30.5125C31.792 30.3169 31.5267 30.207 31.2501 30.207C30.9735 30.207 30.7082 30.3169 30.5126 30.5125C30.317 30.7081 30.2071 30.9733 30.2071 31.25C30.2071 31.5266 30.317 31.7919 30.5126 31.9875L31.9876 30.5125ZM40.6251 29.1666V41.6666H42.7084V29.1666H40.6251ZM41.6668 40.625H29.1667V42.7083H41.6668V40.625ZM42.4043 40.9291L31.9876 30.5125L30.5126 31.9875L40.9293 42.4041L42.4043 40.9291ZM8.33341 41.6666H7.29175V42.7083H8.33341V41.6666ZM19.4876 31.9875C19.6832 31.7919 19.7931 31.5266 19.7931 31.25C19.7931 30.9733 19.6832 30.7081 19.4876 30.5125C19.292 30.3169 19.0267 30.207 18.7501 30.207C18.4735 30.207 18.2082 30.3169 18.0126 30.5125L19.4876 31.9875ZM7.29175 29.1666V41.6666H9.37508V29.1666H7.29175ZM8.33341 42.7083H20.8334V40.625H8.33341V42.7083ZM9.07092 42.4041L19.4876 31.9875L18.0126 30.5125L7.59591 40.9291L9.07092 42.4041ZM41.6668 8.33329H42.7084V7.29163H41.6668V8.33329ZM30.5126 18.0125C30.4157 18.1093 30.3389 18.2243 30.2865 18.3508C30.2341 18.4774 30.2071 18.613 30.2071 18.75C30.2071 18.8869 30.2341 19.0226 30.2865 19.1491C30.3389 19.2756 30.4157 19.3906 30.5126 19.4875C30.6094 19.5843 30.7244 19.6611 30.851 19.7136C30.9775 19.766 31.1131 19.7929 31.2501 19.7929C31.387 19.7929 31.5227 19.766 31.6492 19.7136C31.7758 19.6611 31.8907 19.5843 31.9876 19.4875L30.5126 18.0125ZM42.7084 20.8333V8.33329H40.6251V20.8333H42.7084ZM41.6668 7.29163H29.1667V9.37496H41.6668V7.29163ZM40.9293 7.59579L30.5126 18.0125L31.9876 19.4875L42.4043 9.07079L40.9293 7.59579ZM8.33341 8.33329V7.29163H7.29175V8.33329H8.33341ZM18.0126 19.4875C18.2082 19.6831 18.4735 19.7929 18.7501 19.7929C19.0267 19.7929 19.292 19.6831 19.4876 19.4875C19.6832 19.2919 19.7931 19.0266 19.7931 18.75C19.7931 18.4733 19.6832 18.2081 19.4876 18.0125L18.0126 19.4875ZM9.37508 20.8333V8.33329H7.29175V20.8333H9.37508ZM8.33341 9.37496H20.8334V7.29163H8.33341V9.37496ZM7.59591 9.07079L18.0126 19.4875L19.4876 18.0125L9.07092 7.59579L7.59591 9.07079Z" fill="white"/>
</svg>
