<svg width="150" height="150" viewBox="0 0 150 150" fill="none" xmlns="http://www.w3.org/2000/svg">
<path d="M145.313 75C145.313 81.49 143.389 87.8345 139.783 93.2309C136.178 98.6273 131.053 102.833 125.057 105.317C119.061 107.801 112.463 108.451 106.098 107.184C99.7327 105.918 93.8859 102.793 89.2969 98.2031L89.1036 97.998L53.9766 58.3301C50.688 55.0799 46.5114 52.875 41.9726 51.9929C37.4337 51.1109 32.7354 51.591 28.4688 53.373C24.2022 55.155 20.558 58.1592 17.9948 62.0075C15.4316 65.8558 14.064 70.3762 14.064 75C14.064 79.6238 15.4316 84.1442 17.9948 87.9925C20.558 91.8408 24.2022 94.845 28.4688 96.627C32.7354 98.409 37.4337 98.8891 41.9726 98.0071C46.5114 97.125 50.688 94.9202 53.9766 91.6699L58.9688 86.0332C59.7932 85.1008 60.9543 84.5341 62.1965 84.4577C63.4387 84.3813 64.6604 84.8016 65.5928 85.626C66.5252 86.4504 67.092 87.6114 67.1683 88.8536C67.2447 90.0959 66.8245 91.3176 66.0001 92.25L60.9083 97.998L60.7149 98.2031C56.1259 102.792 50.2792 105.916 43.9143 107.182C37.5494 108.448 30.9521 107.798 24.9566 105.314C18.9611 102.831 13.8367 98.6252 10.2313 93.2293C6.626 87.8334 4.70166 81.4896 4.70166 75C4.70166 68.5104 6.626 62.1666 10.2313 56.7707C13.8367 51.3748 18.9611 47.1691 24.9566 44.6855C30.9521 42.2019 37.5494 41.5519 43.9143 42.8177C50.2792 44.0835 56.1259 47.2083 60.7149 51.7969L60.9083 52.002L96.0352 91.6699C99.3239 94.9202 103.5 97.125 108.039 98.0071C112.578 98.8891 117.277 98.409 121.543 96.627C125.81 94.845 129.454 91.8408 132.017 87.9925C134.58 84.1442 135.948 79.6238 135.948 75C135.948 70.3762 134.58 65.8558 132.017 62.0075C129.454 58.1592 125.81 55.155 121.543 53.373C117.277 51.591 112.578 51.1109 108.039 51.9929C103.5 52.875 99.3239 55.0799 96.0352 58.3301L91.043 63.9668C90.2186 64.8992 89.0576 65.4659 87.8154 65.5423C86.5731 65.6187 85.3514 65.1984 84.419 64.374C83.4866 63.5496 82.9199 62.3886 82.8435 61.1464C82.7672 59.9041 83.1874 58.6824 84.0118 57.75L89.1036 52.002L89.2969 51.7969C93.8859 47.2075 99.7327 44.082 106.098 42.8157C112.463 41.5495 119.061 42.1993 125.057 44.683C131.053 47.1667 136.178 51.3727 139.783 56.7691C143.389 62.1655 145.313 68.51 145.313 75Z" fill="#6A6E77"/>
</svg>
